# xmcd
#
# Track frame offsets:
#	150
#	11172
#	32487
#	50920
#	68507
#	78397
#	94865
#	111332
#	127532
#	135622
#	145480
#	159017
#	169885
#	181700
#	193085
#	207517
#	220152
#	232732
#	248780
#	267987
#	280460
#	289322
#	308575
#	321415
#	337415
#
# Disc length: 4645 seconds
#
# Revision: 1
# Processed by: cddbd v1.5PL3 Copyright (c) Steve Scherf et al.
# Submitted via: CDex 1.50Beta5
#
DISCID=75122319
DTITLE=高橋つや他 - 決定版東北の民謡
DYEAR=1900
DGENRE=
TTITLE0=津軽じょんから節
TTITLE1=津軽おはら節
TTITLE2=津軽あいや節
TTITLE3=津軽よされ節
TTITLE4=津軽木挽唄
TTITLE5=十三の砂山
TTITLE6=古調 津軽あいや節
TTITLE7=津軽道中馬方節
TTITLE8=謙良節
TTITLE9=黒石よされ節
TTITLE10=津軽ばやし
TTITLE11=嘉瀬の奴踊り
TTITLE12=秋田音頭
TTITLE13=秋田おばこ
TTITLE14=秋田船方節
TTITLE15=本荘追分
TTITLE16=生保内節
TTITLE17=秋田おはら節
TTITLE18=秋田荷方節
TTITLE19=秋田酒屋仕込み唄
TTITLE20=秋田酒屋唄
TTITLE21=喜代節
TTITLE22=秋田長持唄
TTITLE23=秋田馬子唄
TTITLE24=姉こもさ
EXTD=
EXTT0=
EXTT1=
EXTT2=
EXTT3=
EXTT4=
EXTT5=
EXTT6=
EXTT7=
EXTT8=
EXTT9=
EXTT10=
EXTT11=
EXTT12=
EXTT13=
EXTT14=
EXTT15=
EXTT16=
EXTT17=
EXTT18=
EXTT19=
EXTT20=
EXTT21=
EXTT22=
EXTT23=
EXTT24=
PLAYORDER=
